<svg xmlns="http://www.w3.org/2000/svg" xmlns:xlink="http://www.w3.org/1999/xlink" xml:space="preserve" version="1.1" style="shape-rendering:geometricPrecision;text-rendering:geometricPrecision;image-rendering:optimizeQuality;" viewBox="0 0 175.94 371.11249999999995" x="0px" y="0px" fill-rule="evenodd" clip-rule="evenodd"><defs><style type="text/css">
   
    .fil0 {fill:black}
   
  </style></defs><g><path class="fil0" d="M172.59 33.88c-0.18,3.04 -17.05,48.18 -18.8,51.36 -12.76,23.23 -26.11,38.37 -56.04,30.11 -41.97,-11.59 -15.77,-63.59 4.39,-82.36 15.04,-14 33.09,-23.31 54.13,-20.69 25.51,3.18 -45.07,90.31 -47.2,95 -6.49,14.28 64.61,-91.32 63.53,-73.43z"/><path class="fil0" d="M166.13 81.56c-6.38,12.59 -27.37,32.35 -21.62,24.84 17.48,-22.84 26.39,-61.68 30.71,-68.06 1.86,-2.74 0.6,24.11 -9.09,43.22z"/><path class="fil0" d="M159.71 37.13c1.41,-1.22 10.26,-8.1 10.78,-8.92 5.33,-8.38 -1.74,-5.8 -2.63,-8.41 -0.76,-2.24 1.98,-8.87 -0.06,-10.19 -1.13,-0.73 -6.33,-2.04 -7.07,-3.22 -0.74,-1.19 2.22,-3.02 1.78,-3.95 -3.45,-7.32 -42.09,2.72 -61.37,18.49 -12.63,10.33 -27.94,37.81 -24.57,45.94 0.11,0.27 13.52,-39.27 49.55,-52.85 3.51,-1.33 10.22,-3.54 17.13,-4.67 9.53,-1.56 19.38,-1.18 21.33,5.76 1.83,6.48 -2.46,16.03 -4.87,22.02z"/><path class="fil0" d="M96.58 119.51c0,0 -2.71,-2.21 -3.82,-2.61 -7.76,-2.83 -35.64,121.27 -37.32,131.67 -2.41,-22.13 -5.1,-42.53 -13.63,-63.36 -6.45,-15.76 -39.95,-76.68 -41.45,-70.2 -3.07,13.25 14.98,66.32 21.41,83.11 9.04,23.63 16.69,40.92 22.89,65.72 0.07,0.29 -9.78,-55.75 -24.63,-91.94 -0.17,-0.42 23.61,46.65 29.15,124.96 2.03,0.11 5.86,-0.18 7.74,-0.5 3.17,-0.55 0.37,-25.74 1.23,-30.86 3.19,-20.31 31.18,-129.15 38.43,-145.99z"/></g><text x="0" y="311.89" fill="#000000" font-size="5px" font-weight="bold" font-family="'Helvetica Neue', Helvetica, Arial-Unicode, Arial, Sans-serif">Created by doniprayogo</text><text x="0" y="316.89" fill="#000000" font-size="5px" font-weight="bold" font-family="'Helvetica Neue', Helvetica, Arial-Unicode, Arial, Sans-serif">from the Noun Project</text></svg>